<?xml version="1.0" encoding="UTF-8"?>
<svg id="Capa_2" data-name="Capa 2" xmlns="http://www.w3.org/2000/svg" viewBox="0 0 458.3 431.84">
  <g id="Capa_1-2" data-name="Capa 1">
    <polygon points="452.3 9.76 452.3 313.76 343.3 313.76 343.3 185.76 388.3 185.76 388.3 141.76 343.3 141.76 343.3 9.76 452.3 9.76"/>
    <path d="M284.3,373.76v14h31v13h-31v16h32.5c2.25,0,2.25,14,0,14h-50.5v-71h49.5c2.25,0,2.25,14,0,14h-31.5Z"/>
    <path d="M78.3,364.76v16c-13.43-6.51-35.26-11.07-45.44,3.06-8.76,12.17-1.56,27.75,12.2,31.67,11.78,3.36,23.79-1.53,34.24-6.74v16c-23.23,13.29-65.32,7.18-68.04-24.46-3.23-37.64,38.26-48.79,67.04-35.54Z"/>
    <path d="M326.3,409.76c5.68,1.99,11.51,7.07,17.59,7.91,4.99.69,18.75,1.35,16.23-7.2s-33.27-7.45-34.86-28.17,16.25-24.02,32.57-22.58c2.65.23,16.01,3.5,17.01,4.99,1.5,2.24-.13,10.87.45,14.04-8.04-3.26-16.55-7.09-25.52-6.02-4.03.48-7.72,2.69-6.31,7.32,1.79,5.9,29.97,8.36,34.16,22.87,5.1,17.66-9.53,28.88-25.83,28.91-3.42,0-25.5-4.63-25.5-7.58v-14.5Z"/>
    <path d="M174.3,359.76v71h-18v-69.5c0-.11,1.39-1.5,1.5-1.5h16.5Z"/>
    <path d="M325.3,141.76h-41v44h41c-14.69,116.78-146.65,179.97-247.92,117.42C-22.16,241.69-26.28,98.56,68.58,30.54c100.18-71.84,241.4-9.75,256.72,111.22ZM161.75,217.81c74.54,2.49,74.26-116.54-7.67-106.76-59.64,7.12-58.49,104.55,7.67,106.76Z"/>
    <path d="M187.8,359.76h32c27.8,0,45.49,27.87,32.89,52.89-5.3,10.52-20.3,18.11-31.89,18.11h-33c-.11,0-1.5-1.39-1.5-1.5v-68c0-.27,1.17-.99,1.5-1.5ZM223.8,416.76c.37,0,5.64-2.99,6.44-3.56,11.21-8.07,10.92-28.7-.6-36.27-.87-.57-6.4-3.16-6.84-3.16h-18.5v43h19.5Z"/>
    <path d="M121.8,359.76c21,2.22,32.47,25.56,11.51,37.02l.02,1.45c9.4,8.46,12.44,21.53,17.98,32.53h-18.5c-8.23-9.96-8.08-30.85-25.5-29v29h-16.5c-.11,0-1.5-1.39-1.5-1.5v-68c0-.11,1.39-1.5,1.5-1.5,9.57,0,21.84-.97,31,0ZM107.3,372.76v16c26.01,4.12,24.63-18.86,0-16Z"/>
    <path d="M458.3,430.76h-19c-1.29-3.21-3.06-10.99-4.9-13.38-1.23-1.6-27.64-.15-32.01-.52-.12,2.25-4.28,13.9-5.6,13.9h-17.5l29.46-71.07c4.23.88,16.28-1.39,19.05,1.06l30.49,70.01ZM417.8,377.75c-3.34,8.81-7.85,17.77-9.5,27.01h20l-10.5-27.01Z"/>
  </g>
</svg>